<?xml version="1.0" encoding="UTF-8"?>
<svg version="1.1" xmlns="http://www.w3.org/2000/svg" width="479" height="478">
<path d="M0 0 C158.07 0 316.14 0 479 0 C479 157.74 479 315.48 479 478 C320.93 478 162.86 478 0 478 C0 320.26 0 162.52 0 0 Z " fill="#FFFFFF" transform="translate(0,0)"/>
<path d="M0 0 C59.07 0 118.14 0 179 0 C179 157.74 179 315.48 179 478 C139.73 478 100.46 478 60 478 C60 458.86 60 439.72 60 420 C79.8 420 99.6 420 120 420 C120 400.2 120 380.4 120 360 C100.2 360 80.4 360 60 360 C60 340.2 60 320.4 60 300 C79.8 300 99.6 300 120 300 C120 280.2 120 260.4 120 240 C100.2 240 80.4 240 60 240 C60 220.2 60 200.4 60 180 C79.8 180 99.6 180 120 180 C120 160.2 120 140.4 120 120 C100.2 120 80.4 120 60 120 C60 100.2 60 80.4 60 60 C40.2 60 20.4 60 0 60 C0 40.2 0 20.4 0 0 Z " fill="#000000" transform="translate(300,0)"/>
<path d="M0 0 C19.8 0 39.6 0 60 0 C60 19.8 60 39.6 60 60 C79.8 60 99.6 60 120 60 C120 40.2 120 20.4 120 0 C139.8 0 159.6 0 180 0 C180 19.8 180 39.6 180 60 C199.8 60 219.6 60 240 60 C240 40.2 240 20.4 240 0 C259.8 0 279.6 0 300 0 C300 19.8 300 39.6 300 60 C319.8 60 339.6 60 360 60 C360 79.14 360 98.28 360 118 C241.2 118 122.4 118 0 118 C0 79.06 0 40.12 0 0 Z " fill="#000000" transform="translate(0,360)"/>
<path d="M0 0 C19.47 0 38.94 0 59 0 C59 38.94 59 77.88 59 118 C19.73 118 -19.54 118 -60 118 C-60 98.86 -60 79.72 -60 60 C-40.2 60 -20.4 60 0 60 C0 40.2 0 20.4 0 0 Z " fill="#FFFFFF" transform="translate(420,360)"/>
<path d="M0 0 C19.8 0 39.6 0 60 0 C60 19.8 60 39.6 60 60 C40.2 60 20.4 60 0 60 C0 40.2 0 20.4 0 0 Z " fill="#000000" transform="translate(360,360)"/>
<path d="M0 0 C19.8 0 39.6 0 60 0 C60 19.8 60 39.6 60 60 C40.2 60 20.4 60 0 60 C0 40.2 0 20.4 0 0 Z " fill="#FFFFFF" transform="translate(300,360)"/>
<path d="M0 0 C19.8 0 39.6 0 60 0 C60 19.8 60 39.6 60 60 C40.2 60 20.4 60 0 60 C0 40.2 0 20.4 0 0 Z " fill="#000000" transform="translate(240,360)"/>
<path d="M0 0 C19.8 0 39.6 0 60 0 C60 19.8 60 39.6 60 60 C40.2 60 20.4 60 0 60 C0 40.2 0 20.4 0 0 Z " fill="#FFFFFF" transform="translate(180,360)"/>
<path d="M0 0 C19.8 0 39.6 0 60 0 C60 19.8 60 39.6 60 60 C40.2 60 20.4 60 0 60 C0 40.2 0 20.4 0 0 Z " fill="#000000" transform="translate(120,360)"/>
<path d="M0 0 C19.8 0 39.6 0 60 0 C60 19.8 60 39.6 60 60 C40.2 60 20.4 60 0 60 C0 40.2 0 20.4 0 0 Z " fill="#FFFFFF" transform="translate(60,360)"/>
<path d="M0 0 C19.8 0 39.6 0 60 0 C60 19.8 60 39.6 60 60 C40.2 60 20.4 60 0 60 C0 40.2 0 20.4 0 0 Z " fill="#FFFFFF" transform="translate(360,300)"/>
<path d="M0 0 C19.8 0 39.6 0 60 0 C60 19.8 60 39.6 60 60 C40.2 60 20.4 60 0 60 C0 40.2 0 20.4 0 0 Z " fill="#000000" transform="translate(300,300)"/>
<path d="M0 0 C19.8 0 39.6 0 60 0 C60 19.8 60 39.6 60 60 C40.2 60 20.4 60 0 60 C0 40.2 0 20.4 0 0 Z " fill="#FFFFFF" transform="translate(240,300)"/>
<path d="M0 0 C19.8 0 39.6 0 60 0 C60 19.8 60 39.6 60 60 C40.2 60 20.4 60 0 60 C0 40.2 0 20.4 0 0 Z " fill="#000000" transform="translate(180,300)"/>
<path d="M0 0 C19.8 0 39.6 0 60 0 C60 19.8 60 39.6 60 60 C40.2 60 20.4 60 0 60 C0 40.2 0 20.4 0 0 Z " fill="#FFFFFF" transform="translate(120,300)"/>
<path d="M0 0 C19.8 0 39.6 0 60 0 C60 19.8 60 39.6 60 60 C40.2 60 20.4 60 0 60 C0 40.2 0 20.4 0 0 Z " fill="#000000" transform="translate(60,300)"/>
<path d="M0 0 C19.8 0 39.6 0 60 0 C60 19.8 60 39.6 60 60 C40.2 60 20.4 60 0 60 C0 40.2 0 20.4 0 0 Z " fill="#FFFFFF" transform="translate(0,300)"/>
<path d="M0 0 C19.8 0 39.6 0 60 0 C60 19.8 60 39.6 60 60 C40.2 60 20.4 60 0 60 C0 40.2 0 20.4 0 0 Z " fill="#000000" transform="translate(360,240)"/>
<path d="M0 0 C19.8 0 39.6 0 60 0 C60 19.8 60 39.6 60 60 C40.2 60 20.4 60 0 60 C0 40.2 0 20.4 0 0 Z " fill="#FFFFFF" transform="translate(300,240)"/>
<path d="M0 0 C19.8 0 39.6 0 60 0 C60 19.8 60 39.6 60 60 C40.2 60 20.4 60 0 60 C0 40.2 0 20.4 0 0 Z " fill="#000000" transform="translate(240,240)"/>
<path d="M0 0 C19.8 0 39.6 0 60 0 C60 19.8 60 39.6 60 60 C40.2 60 20.4 60 0 60 C0 40.2 0 20.4 0 0 Z " fill="#FFFFFF" transform="translate(180,240)"/>
<path d="M0 0 C19.8 0 39.6 0 60 0 C60 19.8 60 39.6 60 60 C40.2 60 20.4 60 0 60 C0 40.2 0 20.4 0 0 Z " fill="#000000" transform="translate(120,240)"/>
<path d="M0 0 C19.8 0 39.6 0 60 0 C60 19.8 60 39.6 60 60 C40.2 60 20.4 60 0 60 C0 40.2 0 20.4 0 0 Z " fill="#FFFFFF" transform="translate(60,240)"/>
<path d="M0 0 C19.8 0 39.6 0 60 0 C60 19.8 60 39.6 60 60 C40.2 60 20.4 60 0 60 C0 40.2 0 20.4 0 0 Z " fill="#000000" transform="translate(0,240)"/>
<path d="M0 0 C19.8 0 39.6 0 60 0 C60 19.8 60 39.6 60 60 C40.2 60 20.4 60 0 60 C0 40.2 0 20.4 0 0 Z " fill="#FFFFFF" transform="translate(360,180)"/>
<path d="M0 0 C19.8 0 39.6 0 60 0 C60 19.8 60 39.6 60 60 C40.2 60 20.4 60 0 60 C0 40.2 0 20.4 0 0 Z " fill="#000000" transform="translate(300,180)"/>
<path d="M0 0 C19.8 0 39.6 0 60 0 C60 19.8 60 39.6 60 60 C40.2 60 20.4 60 0 60 C0 40.2 0 20.4 0 0 Z " fill="#FFFFFF" transform="translate(240,180)"/>
<path d="M0 0 C19.8 0 39.6 0 60 0 C60 19.8 60 39.6 60 60 C40.2 60 20.4 60 0 60 C0 40.2 0 20.4 0 0 Z " fill="#000000" transform="translate(180,180)"/>
<path d="M0 0 C19.8 0 39.6 0 60 0 C60 19.8 60 39.6 60 60 C40.2 60 20.4 60 0 60 C0 40.2 0 20.4 0 0 Z " fill="#FFFFFF" transform="translate(120,180)"/>
<path d="M0 0 C19.8 0 39.6 0 60 0 C60 19.8 60 39.6 60 60 C40.2 60 20.4 60 0 60 C0 40.2 0 20.4 0 0 Z " fill="#000000" transform="translate(60,180)"/>
<path d="M0 0 C19.8 0 39.6 0 60 0 C60 19.8 60 39.6 60 60 C40.2 60 20.4 60 0 60 C0 40.2 0 20.4 0 0 Z " fill="#FFFFFF" transform="translate(0,180)"/>
<path d="M0 0 C19.8 0 39.6 0 60 0 C60 19.8 60 39.6 60 60 C40.2 60 20.4 60 0 60 C0 40.2 0 20.4 0 0 Z " fill="#000000" transform="translate(360,120)"/>
<path d="M0 0 C19.8 0 39.6 0 60 0 C60 19.8 60 39.6 60 60 C40.2 60 20.4 60 0 60 C0 40.2 0 20.4 0 0 Z " fill="#FFFFFF" transform="translate(300,120)"/>
<path d="M0 0 C19.8 0 39.6 0 60 0 C60 19.8 60 39.6 60 60 C40.2 60 20.4 60 0 60 C0 40.2 0 20.4 0 0 Z " fill="#000000" transform="translate(240,120)"/>
<path d="M0 0 C19.8 0 39.6 0 60 0 C60 19.8 60 39.6 60 60 C40.2 60 20.4 60 0 60 C0 40.2 0 20.4 0 0 Z " fill="#FFFFFF" transform="translate(180,120)"/>
<path d="M0 0 C19.8 0 39.6 0 60 0 C60 19.8 60 39.6 60 60 C40.2 60 20.4 60 0 60 C0 40.2 0 20.4 0 0 Z " fill="#000000" transform="translate(120,120)"/>
<path d="M0 0 C19.8 0 39.6 0 60 0 C60 19.8 60 39.6 60 60 C40.2 60 20.4 60 0 60 C0 40.2 0 20.4 0 0 Z " fill="#FFFFFF" transform="translate(60,120)"/>
<path d="M0 0 C19.8 0 39.6 0 60 0 C60 19.8 60 39.6 60 60 C40.2 60 20.4 60 0 60 C0 40.2 0 20.4 0 0 Z " fill="#000000" transform="translate(0,120)"/>
<path d="M0 0 C19.8 0 39.6 0 60 0 C60 19.8 60 39.6 60 60 C40.2 60 20.4 60 0 60 C0 40.2 0 20.4 0 0 Z " fill="#FFFFFF" transform="translate(360,60)"/>
<path d="M0 0 C19.8 0 39.6 0 60 0 C60 19.8 60 39.6 60 60 C40.2 60 20.4 60 0 60 C0 40.2 0 20.4 0 0 Z " fill="#000000" transform="translate(300,60)"/>
<path d="M0 0 C19.8 0 39.6 0 60 0 C60 19.8 60 39.6 60 60 C40.2 60 20.4 60 0 60 C0 40.2 0 20.4 0 0 Z " fill="#FFFFFF" transform="translate(240,60)"/>
<path d="M0 0 C19.8 0 39.6 0 60 0 C60 19.8 60 39.6 60 60 C40.2 60 20.4 60 0 60 C0 40.2 0 20.4 0 0 Z " fill="#000000" transform="translate(180,60)"/>
<path d="M0 0 C19.8 0 39.6 0 60 0 C60 19.8 60 39.6 60 60 C40.2 60 20.4 60 0 60 C0 40.2 0 20.4 0 0 Z " fill="#FFFFFF" transform="translate(120,60)"/>
<path d="M0 0 C19.8 0 39.6 0 60 0 C60 19.8 60 39.6 60 60 C40.2 60 20.4 60 0 60 C0 40.2 0 20.4 0 0 Z " fill="#000000" transform="translate(60,60)"/>
<path d="M0 0 C19.8 0 39.6 0 60 0 C60 19.8 60 39.6 60 60 C40.2 60 20.4 60 0 60 C0 40.2 0 20.4 0 0 Z " fill="#FFFFFF" transform="translate(0,60)"/>
<path d="M0 0 C19.8 0 39.6 0 60 0 C60 19.8 60 39.6 60 60 C40.2 60 20.4 60 0 60 C0 40.2 0 20.4 0 0 Z " fill="#FFFFFF" transform="translate(300,0)"/>
<path d="M0 0 C19.8 0 39.6 0 60 0 C60 19.8 60 39.6 60 60 C40.2 60 20.4 60 0 60 C0 40.2 0 20.4 0 0 Z " fill="#000000" transform="translate(240,0)"/>
<path d="M0 0 C19.8 0 39.6 0 60 0 C60 19.8 60 39.6 60 60 C40.2 60 20.4 60 0 60 C0 40.2 0 20.4 0 0 Z " fill="#FFFFFF" transform="translate(180,0)"/>
<path d="M0 0 C19.8 0 39.6 0 60 0 C60 19.8 60 39.6 60 60 C40.2 60 20.4 60 0 60 C0 40.2 0 20.4 0 0 Z " fill="#000000" transform="translate(120,0)"/>
<path d="M0 0 C19.8 0 39.6 0 60 0 C60 19.8 60 39.6 60 60 C40.2 60 20.4 60 0 60 C0 40.2 0 20.4 0 0 Z " fill="#000000" transform="translate(0,0)"/>
<path d="M0 0 C19.47 0 38.94 0 59 0 C59 19.8 59 39.6 59 60 C39.53 60 20.06 60 0 60 C0 40.2 0 20.4 0 0 Z " fill="#000000" transform="translate(420,300)"/>
<path d="M0 0 C19.47 0 38.94 0 59 0 C59 19.8 59 39.6 59 60 C39.53 60 20.06 60 0 60 C0 40.2 0 20.4 0 0 Z " fill="#FFFFFF" transform="translate(420,240)"/>
<path d="M0 0 C19.47 0 38.94 0 59 0 C59 19.8 59 39.6 59 60 C39.53 60 20.06 60 0 60 C0 40.2 0 20.4 0 0 Z " fill="#000000" transform="translate(420,180)"/>
<path d="M0 0 C19.47 0 38.94 0 59 0 C59 19.8 59 39.6 59 60 C39.53 60 20.06 60 0 60 C0 40.2 0 20.4 0 0 Z " fill="#FFFFFF" transform="translate(420,120)"/>
<path d="M0 0 C19.47 0 38.94 0 59 0 C59 19.8 59 39.6 59 60 C39.53 60 20.06 60 0 60 C0 40.2 0 20.4 0 0 Z " fill="#000000" transform="translate(420,60)"/>
<path d="M0 0 C19.47 0 38.94 0 59 0 C59 19.8 59 39.6 59 60 C39.53 60 20.06 60 0 60 C0 40.2 0 20.4 0 0 Z " fill="#FFFFFF" transform="translate(420,0)"/>
<path d="M0 0 C19.8 0 39.6 0 60 0 C60 19.14 60 38.28 60 58 C40.2 58 20.4 58 0 58 C0 38.86 0 19.72 0 0 Z " fill="#FFFFFF" transform="translate(360,420)"/>
<path d="M0 0 C19.8 0 39.6 0 60 0 C60 19.14 60 38.28 60 58 C40.2 58 20.4 58 0 58 C0 38.86 0 19.72 0 0 Z " fill="#000000" transform="translate(300,420)"/>
<path d="M0 0 C19.8 0 39.6 0 60 0 C60 19.14 60 38.28 60 58 C40.2 58 20.4 58 0 58 C0 38.86 0 19.72 0 0 Z " fill="#FFFFFF" transform="translate(240,420)"/>
<path d="M0 0 C19.8 0 39.6 0 60 0 C60 19.14 60 38.28 60 58 C40.2 58 20.4 58 0 58 C0 38.86 0 19.72 0 0 Z " fill="#000000" transform="translate(180,420)"/>
<path d="M0 0 C19.8 0 39.6 0 60 0 C60 19.14 60 38.28 60 58 C40.2 58 20.4 58 0 58 C0 38.86 0 19.72 0 0 Z " fill="#FFFFFF" transform="translate(120,420)"/>
<path d="M0 0 C19.8 0 39.6 0 60 0 C60 19.14 60 38.28 60 58 C40.2 58 20.4 58 0 58 C0 38.86 0 19.72 0 0 Z " fill="#000000" transform="translate(60,420)"/>
<path d="M0 0 C19.8 0 39.6 0 60 0 C60 19.14 60 38.28 60 58 C40.2 58 20.4 58 0 58 C0 38.86 0 19.72 0 0 Z " fill="#FFFFFF" transform="translate(0,420)"/>
<path d="M0 0 C19.47 0 38.94 0 59 0 C59 19.14 59 38.28 59 58 C39.53 58 20.06 58 0 58 C0 38.86 0 19.72 0 0 Z " fill="#000000" transform="translate(420,420)"/>
</svg>
